<svg xmlns="http://www.w3.org/2000/svg" fill="none" viewBox="0 0 78 78"><path fill="#000" d="M32.4 71.2C30.5 71.2 28.3 71.2 25.7 71.2 23.2 71.2 20.8 71.2 18.4 71.2 16 71.2 13.9 71.2 12.2 71.2 10.5 71.2 9.5 71.2 9.3 71.2 9 71.2 8.7 71.1 8.5 70.9 8.3 70.7 8.3 70.4 8.3 70.1 8.3 65 8.3 60.1 8.3 55.5 8.3 50.7 8.3 46.1 8.3 41.6 8.3 37 8.3 32.3 8.3 27.7 8.3 23 8.3 18 8.3 12.9H23.6L22.9 14.9C22.9 16.8 22.9 18.6 22.9 20.4 22.9 22.2 22.9 23.9 22.9 25.5 22.9 28.2 22.9 30.9 22.9 33.5 22.9 36.2 22.9 38.9 22.9 41.6 22.9 44.2 22.9 47 22.9 49.8 22.9 52.6 22.9 55.6 22.9 58.7 23.8 58.7 24.7 58.7 25.5 58.7 26.4 58.7 27.3 58.7 28.2 58.7 29.1 58.7 30 58.7 30.8 58.7 32.4 58.7 33.7 58.5 34.6 58 35.6 57.5 36.4 56.8 36.8 55.9 37.3 55.1 37.5 54 37.5 52.8V49.8C37.5 48.4 37.3 47.3 36.8 46.4 36.4 45.4 35.6 44.8 34.6 44.4 33.7 44 32.4 43.7 30.8 43.7H15.3L15.9 35H40.4V38.7C44.1 39.2 47 40.7 49.1 43 51.2 45.3 52.2 48.4 52.2 52.5V55.2C52.2 59 51.4 62.1 49.7 64.4 48.1 66.8 45.8 68.5 42.8 69.5 39.9 70.6 36.4 71.2 32.4 71.2ZM4 5C8.5 5 12.9 5 17.4 5 21.9 5 26.3 5 30.7 5 34.8 5 38.2 5.4 41 6.3 43.7 7.2 45.9 8.4 47.6 9.9 49.2 11.4 50.4 13 51.1 14.9 51.8 16.7 52.2 18.6 52.2 20.5V22.7C52.2 25.1 51.8 27.1 50.9 28.9 50.1 30.7 48.9 32.2 47.3 33.4 45.7 34.5 43.8 35.3 41.6 35.9 39.5 36.5 37.1 36.8 34.5 36.8 30.6 36.8 27.3 36.8 24.7 36.8 22.1 36.8 19.7 36.8 17.6 36.8L15.9 38.1 15.3 31.7C17.9 31.7 20.5 31.7 23.2 31.7 25.8 31.7 28.4 31.7 31 31.7 32.5 31.7 33.7 31.5 34.6 31.1 35.6 30.6 36.4 29.9 36.8 28.9 37.3 28 37.5 26.8 37.5 25.4V23.1C37.5 22.3 37.4 21.5 37.2 20.8 37 20.1 36.6 19.5 36.1 19.1 35.6 18.5 34.8 18.1 34 17.9 33.1 17.6 32.1 17.5 30.9 17.5 28.1 17.5 25.2 17.5 22.3 17.5 19.4 17.5 16.5 17.5 13.6 17.5 10.8 17.5 7.9 17.5 5 17.5 4.7 17.5 4.5 17.4 4.3 17.2 4.1 17 4 16.7 4 16.4 4 14.4 4 12.5 4 10.8 4 9 4 7.1 4 5ZM69.1 43.7H59.8C59.6 43.7 59.5 43.7 59.3 43.7 59.3 43.6 59.2 43.5 59.1 43.5 59 43.3 58.9 43.1 58.8 42.9 58.6 42.6 58.5 41.8 58.2 40.6 58 39.4 57.7 37.5 57.3 34.9 56.8 32.2 56.2 28.5 55.5 23.7V15.4C55.5 13.6 55.5 11.9 55.5 10.2 55.5 8.5 55.5 6.8 55.5 5 57.4 5 59.7 5 62.4 5 65 5 68 5 71.4 5 71.6 5 71.8 5.1 71.9 5.2 72.1 5.3 72.2 5.3 72.3 5.5 72.4 5.6 72.5 5.8 72.5 6V23.7C72.1 25.9 71.7 28.2 71.3 30.4 71 32.6 70.6 34.8 70.2 37 69.8 39.2 69.5 41.5 69.1 43.7ZM73.4 72.1C71.5 72.1 69.5 72.1 67.5 72.1 65.5 72.1 63.5 72.1 61.5 72.1 59.6 72.1 57.6 72.1 55.6 72.1 55.4 72.1 55.2 72 55 71.9 54.9 71.8 54.7 71.7 54.6 71.5 54.6 71.4 54.5 71.2 54.5 71.1V53.2C56.5 53.2 58.5 53.2 60.5 53.2 62.5 53.2 64.5 53.2 66.4 53.2 68.4 53.2 70.4 53.2 72.4 53.2 72.6 53.2 72.8 53.3 73 53.4 73.1 53.4 73.2 53.5 73.2 53.7 73.4 53.8 73.4 54 73.4 54.2V72.1Z"/></svg>